<svg width="80.000015" height="80.000000" viewBox="0 0 80 80" fill="none" xmlns="http://www.w3.org/2000/svg" xmlns:xlink="http://www.w3.org/1999/xlink">
	<defs/>
	<path id="path" d="M0.00738525 77.5012C-0.233002 80.5607 5.47765 81.0945 5.66023 77.5012L5.92448 15.6007L31.8501 78.5843C33.0475 81.3204 38.9423 79.7354 37.2185 75.9375L5.49702 2.00937C4.32933 -0.970551 -0.064682 -0.248016 0.067337 3.00854L0.00738525 77.5012Z" fill="#FFFFFF" fill-opacity="1.000000" fill-rule="evenodd"/>
	<path id="path" d="M13.4266 3.87115C11.9809 0.361298 17.0201 -1.3956 18.5914 1.7858L47.425 69.12L74.9572 1.42429C75.9389 -0.784607 79.791 -0.504181 79.8374 2.82803L80 76.9808C79.8895 81.0844 74.3827 80.8322 74.3267 77.1814L74.3261 19.8528L50.4534 78.1645C49.6609 80.404 45.8031 80.8052 44.719 78.1645L13.4266 3.87115Z" fill="#FFFFFF" fill-opacity="1.000000" fill-rule="evenodd"/>
</svg>
