<svg width="160.015625" height="26.296875" viewBox="0 0 160.016 26.2969" fill="none" xmlns="http://www.w3.org/2000/svg" xmlns:xlink="http://www.w3.org/1999/xlink">
	<desc>
			Created with Pixso.
	</desc>
	<defs/>
	<path id="ЛОГОТИП" d="M21.498 0.351562L21.498 25.9453L18.123 25.9453L18.123 3.12891L8.94719 3.12891L8.49016 13.2715Q8.22649 18.3691 7.44426 20.9355Q6.66203 23.502 5.15031 24.7061Q3.6386 25.9102 1.10735 25.9453L-7.62939e-05 25.9453L-7.62939e-05 23.1855L0.703049 23.1504Q2.33781 23.0273 3.21672 22.0869Q4.09563 21.1465 4.55266 19.0898Q5.00969 17.0332 5.20305 12.7617L5.73039 0.351562L21.498 0.351562ZM46.9427 13.9746Q46.9427 17.7363 45.677 20.54Q44.4114 23.3438 42.0911 24.8203Q39.7708 26.2969 36.677 26.2969Q33.6536 26.2969 31.3157 24.8115Q28.9778 23.3262 27.6858 20.5752Q26.3938 17.8242 26.3587 14.2031L26.3587 12.3574Q26.3587 8.66602 27.6419 5.83594Q28.9251 3.00586 31.2718 1.50293Q33.6184 0 36.6419 0Q39.718 0 42.0647 1.48535Q44.4114 2.9707 45.677 5.79199Q46.9427 8.61328 46.9427 12.3574L46.9427 13.9746ZM43.5852 12.3223Q43.5852 7.76953 41.7571 5.33496Q39.929 2.90039 36.6419 2.90039Q33.4427 2.90039 31.6057 5.33496Q29.7688 7.76953 29.7161 12.0938L29.7161 13.9746Q29.7161 18.3867 31.5706 20.9092Q33.4251 23.4316 36.677 23.4316Q39.9466 23.4316 41.7395 21.0498Q43.5325 18.668 43.5852 14.2207L43.5852 12.3223ZM67.5182 3.12891L55.1784 3.12891L55.1784 25.9453L51.7858 25.9453L51.7858 0.351562L67.5182 0.351562L67.5182 3.12891ZM89.8164 13.9746Q89.8164 17.7363 88.5508 20.54Q87.2852 23.3438 84.9648 24.8203Q82.6445 26.2969 79.5508 26.2969Q76.5273 26.2969 74.1895 24.8115Q71.8516 23.3262 70.5596 20.5752Q69.2676 17.8242 69.2324 14.2031L69.2324 12.3574Q69.2324 8.66602 70.5156 5.83594Q71.7988 3.00586 74.1455 1.50293Q76.4922 0 79.5156 0Q82.5918 0 84.9385 1.48535Q87.2852 2.9707 88.5508 5.79199Q89.8164 8.61328 89.8164 12.3574L89.8164 13.9746ZM86.459 12.3223Q86.459 7.76953 84.6309 5.33496Q82.8027 2.90039 79.5156 2.90039Q76.3164 2.90039 74.4795 5.33496Q72.6426 7.76953 72.5898 12.0938L72.5898 13.9746Q72.5898 18.3867 74.4443 20.9092Q76.2988 23.4316 79.5508 23.4316Q82.8203 23.4316 84.6133 21.0498Q86.4062 18.668 86.459 14.2207L86.459 12.3223ZM111.728 3.12891L103.501 3.12891L103.501 25.9453L100.144 25.9453L100.144 3.12891L91.9349 3.12891L91.9349 0.351562L111.728 0.351562L111.728 3.12891ZM131.301 0.351562L134.676 0.351562L134.676 25.9453L131.301 25.9453L131.301 6.22266L118.698 25.9453L115.305 25.9453L115.305 0.351562L118.698 0.351562L118.698 20.0742L131.301 0.351562ZM160.016 25.9453L156.623 25.9453L156.623 3.12891L144.002 3.12891L144.002 25.9453L140.627 25.9453L140.627 0.351562L160.016 0.351562L160.016 25.9453Z" fill="#FAFAFA" fill-opacity="1.000000" fill-rule="evenodd"/>
</svg>
